<?xml version="1.0" standalone="no"?>
<!DOCTYPE svg PUBLIC "-//W3C//DTD SVG 20010904//EN"
 "http://www.w3.org/TR/2001/REC-SVG-20010904/DTD/svg10.dtd">
<svg version="1.0" xmlns="http://www.w3.org/2000/svg"
 width="4001.000000pt" height="4001.000000pt" viewBox="0 0 4001.000000 4001.000000"
 preserveAspectRatio="xMidYMid meet">
<metadata>
Created by potrace 1.14, written by Peter Selinger 2001-2017
</metadata>
<g transform="translate(0.000000,4001.000000) scale(0.100000,-0.100000)"
fill="#000000" stroke="none">
<path d="M0 20005 l0 -20005 20005 0 20005 0 0 20005 0 20005 -20005 0 -20005
0 0 -20005z m20485 18760 c753 -116 1443 -593 2081 -1438 589 -780 1125 -1886
1567 -3232 458 -1395 812 -3014 1100 -5026 l22 -156 315 119 c2002 755 3859
1274 5370 1502 415 63 812 106 1265 138 277 19 1030 16 1285 -5 981 -84 1687
-312 2238 -721 135 -100 375 -340 475 -474 228 -305 366 -654 423 -1072 21
-149 24 -503 6 -655 -125 -1052 -716 -2232 -1791 -3575 -830 -1036 -1974
-2167 -3381 -3341 -203 -169 -854 -694 -980 -790 l-35 -27 30 -23 c371 -290
1064 -860 1418 -1167 1355 -1173 2420 -2281 3194 -3322 747 -1004 1216 -1903
1412 -2702 77 -311 104 -528 105 -818 0 -310 -32 -526 -120 -789 -335 -1005
-1345 -1624 -2884 -1765 -414 -39 -1017 -45 -1450 -16 -1881 126 -4133 689
-6758 1690 -161 62 -295 110 -298 108 -2 -3 -24 -130 -49 -284 -566 -3518
-1422 -6133 -2566 -7834 -240 -359 -431 -593 -703 -866 -263 -262 -471 -429
-718 -576 -840 -497 -1718 -473 -2535 72 -199 132 -337 245 -527 430 -360 352
-649 730 -969 1267 -981 1647 -1739 4173 -2197 7318 -28 193 -53 365 -56 383
-4 26 -9 33 -22 29 -9 -2 -168 -61 -352 -130 -2442 -913 -4487 -1432 -6230
-1582 -479 -41 -1177 -53 -1545 -27 -1153 83 -1987 380 -2529 902 -368 355
-582 767 -661 1275 -23 146 -31 488 -16 653 108 1148 835 2526 2131 4037 358
417 562 637 1020 1099 822 829 1618 1538 2671 2378 l327 261 -197 155 c-1877
1484 -3327 2879 -4322 4160 -836 1073 -1367 2058 -1578 2922 -196 807 -105
1554 256 2100 248 374 579 659 1018 875 268 132 489 211 811 291 1078 267
2585 224 4314 -122 1407 -282 3065 -781 4779 -1440 135 -52 248 -94 252 -94 4
0 12 37 19 83 28 199 164 992 225 1312 403 2132 923 3896 1552 5264 685 1490
1468 2485 2328 2959 281 156 590 256 915 298 129 16 403 11 545 -11z"/>
<path d="M19990 38060 c-610 -84 -1210 -518 -1800 -1305 -124 -165 -375 -540
-492 -735 -323 -537 -707 -1332 -1006 -2081 -488 -1220 -923 -2654 -1291
-4249 -97 -422 -203 -919 -199 -937 2 -9 153 -76 378 -168 805 -329 1677 -711
2500 -1098 492 -231 707 -334 1314 -635 l619 -307 236 122 c271 139 1008 500
1429 699 1011 480 2024 925 2986 1313 164 66 300 122 303 124 11 11 -209 1054
-337 1597 -439 1865 -927 3359 -1513 4630 -636 1381 -1352 2347 -2051 2769
-189 114 -425 209 -616 246 -99 19 -365 28 -460 15z"/>
<path d="M7085 30013 c-1109 -52 -1849 -249 -2351 -626 -344 -259 -550 -590
-626 -1005 -31 -171 -31 -499 1 -702 148 -973 790 -2186 1900 -3590 289 -366
707 -856 1041 -1220 394 -430 1067 -1108 1610 -1620 362 -342 1118 -1025 1147
-1037 7 -3 155 103 330 234 856 644 1641 1199 2633 1860 528 352 1230 806
1587 1027 1 1 9 123 18 271 98 1679 248 3252 445 4654 22 157 38 287 35 289
-11 11 -729 240 -1130 360 -884 265 -1547 439 -2350 616 -1321 291 -2368 439
-3445 486 -210 9 -685 11 -845 3z"/>
<path d="M32165 30013 c-1759 -69 -3746 -451 -6100 -1173 -377 -116 -755 -237
-763 -244 -3 -4 9 -122 26 -264 150 -1205 266 -2582 337 -3977 13 -255 45
-999 45 -1040 0 -7 123 -91 273 -186 1428 -907 2885 -1913 4020 -2776 103 -79
192 -143 197 -143 19 0 706 619 1150 1036 526 494 1244 1218 1641 1654 1352
1485 2268 2827 2688 3938 101 268 173 525 218 781 31 180 43 503 24 658 -74
601 -391 1024 -992 1322 -481 239 -1088 368 -1929 411 -174 9 -649 11 -835 3z"/>
<path d="M24700 28396 c-1496 -519 -2862 -1072 -4323 -1751 l-297 -138 222
-115 c1573 -808 3351 -1816 4958 -2810 352 -218 385 -236 388 -215 2 12 -6
157 -18 320 -108 1531 -288 3011 -546 4493 -30 173 -56 318 -57 322 -1 3 -148
-44 -327 -106z"/>
<path d="M15117 28363 c-8 -49 -39 -209 -67 -358 -253 -1338 -472 -2933 -590
-4305 -11 -129 -22 -254 -25 -277 l-5 -43 83 52 c935 587 2200 1332 3277 1930
642 357 1062 582 2003 1073 l138 72 -208 98 c-1353 636 -2830 1239 -4251 1736
-171 60 -318 109 -325 109 -9 0 -19 -29 -30 -87z"/>
<path d="M19295 26121 c-852 -426 -1327 -676 -2063 -1088 -837 -469 -1777
-1035 -2529 -1524 -120 -78 -230 -149 -245 -158 -33 -19 -31 -4 -63 -461 -43
-612 -66 -1048 -96 -1805 -17 -426 -23 -2185 -10 -2697 16 -594 53 -1491 66
-1593 5 -32 13 -45 43 -64 497 -328 1149 -739 1616 -1020 601 -362 1754 -1008
2641 -1480 297 -158 1307 -660 1341 -666 24 -5 141 50 639 299 609 304 829
419 1450 758 1357 742 2266 1282 3353 1992 l160 104 6 49 c14 113 67 955 86
1358 27 593 50 1763 50 2555 0 745 -18 1392 -60 2190 -11 201 -20 376 -20 390
0 20 -13 33 -58 61 -31 20 -154 99 -272 176 -1314 855 -2764 1688 -4290 2466
-340 173 -1023 507 -1038 507 -4 0 -322 -157 -707 -349z m335 -1443 c0 -455
-17 -1578 -33 -2118 l-2 -85 -13 45 c-109 394 -265 667 -514 906 -151 145
-360 282 -539 354 l-81 33 -76 -33 c-301 -130 -622 -325 -896 -544 -135 -108
-406 -374 -525 -516 -347 -414 -602 -886 -751 -1389 -22 -74 -40 -140 -40
-147 0 -12 283 -14 1735 -14 l1735 0 0 -2984 c0 -1642 -3 -2987 -7 -2989 -5
-2 -76 2 -159 9 -897 78 -1752 396 -2491 926 -394 282 -813 696 -1109 1093
-129 175 -384 576 -384 607 0 4 44 -41 99 -100 582 -633 1372 -1026 2219
-1102 140 -13 618 -10 640 4 9 5 12 385 12 1682 l0 1674 -1783 0 -1784 0 -6
119 c-8 139 7 479 28 671 103 900 427 1723 970 2455 272 368 652 748 1025
1026 699 521 1521 853 2370 958 194 24 226 27 303 29 l57 2 0 -572z m798 557
c920 -95 1773 -429 2507 -980 207 -155 352 -282 540 -470 405 -404 710 -830
960 -1340 263 -535 419 -1068 491 -1685 22 -186 30 -697 15 -898 -114 -1485
-840 -2803 -2031 -3689 -728 -542 -1625 -886 -2505 -963 -66 -6 -137 -12 -157
-14 -21 -2 -38 -1 -38 3 0 3 37 25 83 47 130 65 409 228 567 331 400 263 737
539 1072 879 305 310 498 555 860 1089 478 706 744 1220 867 1675 50 184 121
614 121 730 l0 40 -1200 0 -1200 0 0 -1180 0 -1180 -590 0 -590 0 0 3810 0
3810 40 0 c22 0 107 -7 188 -15z"/>
<path d="M21380 22490 l0 -1320 1146 0 1146 0 -7 33 c-16 74 -80 271 -132 407
-326 851 -954 1570 -1759 2014 -101 56 -374 186 -389 186 -3 0 -5 -594 -5
-1320z"/>
<path d="M14040 23073 c-1335 -899 -2528 -1792 -3659 -2739 -184 -153 -341
-285 -349 -292 -10 -7 -12 -15 -6 -20 1157 -1003 2731 -2196 4103 -3111 l184
-123 -7 153 c-52 1231 -59 3170 -16 4654 17 578 54 1524 65 1633 3 28 2 52 -2
52 -5 -1 -145 -93 -313 -207z"/>
<path d="M25714 23139 c21 -380 31 -1169 31 -2479 0 -1404 -2 -1563 -35 -2325
-6 -126 -17 -396 -25 -600 -9 -203 -22 -507 -31 -673 -9 -167 -14 -306 -11
-308 2 -2 143 90 313 204 1335 898 2626 1873 3817 2880 119 101 217 187 217
191 0 5 -93 87 -207 183 -1223 1028 -2540 2015 -3922 2937 l-154 103 7 -113z"/>
<path d="M9724 19777 c-978 -850 -2087 -1920 -2775 -2677 -2503 -2755 -3438
-4941 -2611 -6105 118 -166 333 -359 542 -487 106 -66 324 -170 465 -223 1071
-404 2834 -404 5053 0 1168 213 2662 601 4111 1067 l223 72 -5 51 c-3 27 -26
221 -51 430 -155 1295 -285 2947 -341 4345 -9 217 -18 413 -21 436 l-5 40
-212 134 c-1442 908 -2763 1815 -3963 2720 l-341 257 -69 -60z"/>
<path d="M30165 19796 c-62 -51 -652 -492 -920 -687 -1031 -752 -2172 -1522
-3340 -2257 l-270 -169 -12 -199 c-104 -1721 -255 -3293 -453 -4723 -22 -157
-38 -286 -37 -287 1 -1 135 -45 297 -97 1629 -526 3177 -922 4440 -1136 2221
-377 3905 -343 4938 100 457 196 808 496 982 839 461 913 38 2315 -1238 4100
-455 637 -1102 1416 -1712 2065 -182 194 -875 889 -1130 1134 -549 527 -1459
1351 -1492 1351 -7 0 -31 -15 -53 -34z"/>
<path d="M14365 16613 c3 -43 15 -208 26 -368 79 -1144 215 -2378 384 -3500
74 -489 197 -1221 208 -1231 8 -8 669 222 1162 404 1191 439 2371 935 3595
1510 124 58 226 106 228 107 1 1 -109 59 -245 128 -674 344 -1715 895 -2228
1180 -728 404 -2073 1196 -2873 1691 -139 86 -255 156 -258 156 -3 0 -3 -35 1
-77z"/>
<path d="M25425 16553 c-289 -179 -857 -522 -1150 -695 -1571 -926 -1858
-1086 -3505 -1948 -113 -59 -322 -167 -465 -240 l-260 -134 90 -43 c1482 -705
3036 -1342 4566 -1872 97 -34 181 -61 186 -61 10 0 36 127 119 580 250 1355
445 2815 568 4245 13 149 23 271 22 272 -1 1 -77 -46 -171 -104z"/>
<path d="M19624 13327 c-1476 -739 -3050 -1452 -4376 -1982 -139 -56 -218 -92
-218 -101 0 -28 162 -823 234 -1152 290 -1315 608 -2478 931 -3407 661 -1900
1418 -3295 2196 -4050 885 -857 1753 -929 2669 -219 141 109 462 426 598 591
637 772 1215 1841 1777 3288 373 963 697 2013 1030 3345 142 565 375 1598 375
1656 0 15 -50 39 -258 123 -1242 503 -2558 1100 -4048 1836 l-531 262 -379
-190z"/>
</g>
</svg>
